<?xml version="1.0" standalone="no"?>
<!DOCTYPE svg PUBLIC "-//W3C//DTD SVG 20010904//EN"
 "http://www.w3.org/TR/2001/REC-SVG-20010904/DTD/svg10.dtd">
<svg version="1.0" xmlns="http://www.w3.org/2000/svg"
 width="260.000000pt" height="260.000000pt" viewBox="0 0 260.000000 260.000000"
 preserveAspectRatio="xMidYMid meet">
<metadata>
Created by potrace 1.14, written by Peter Selinger 2001-2017
</metadata>
<g transform="translate(0.000000,260.000000) scale(0.100000,-0.100000)"
fill="#000000" stroke="none">
<path d="M2580 2192 c0 -21 -100 -120 -172 -169 -77 -53 -193 -116 -318 -172
-152 -68 -187 -84 -294 -137 -152 -77 -217 -123 -331 -238 -90 -91 -194 -228
-226 -298 -15 -33 -38 -43 -57 -24 -19 18 -11 38 46 123 74 110 159 207 257
289 128 109 210 152 550 294 261 109 414 197 495 284 21 23 10 19 -70 -23
-133 -69 -382 -152 -530 -176 -19 -3 -42 -8 -50 -10 -8 -2 -29 -7 -46 -10 -49
-8 -203 -54 -233 -69 -42 -22 -115 -96 -146 -150 -39 -67 -43 -42 -6 33 17 33
31 63 31 66 0 2 -24 -9 -52 -27 -76 -46 -187 -162 -228 -238 -31 -58 -84 -200
-74 -200 2 0 0 -10 -5 -22 -10 -27 -20 -111 -23 -187 -1 -53 -21 -96 -59 -133
-8 -7 -57 -33 -109 -58 -52 -25 -97 -46 -99 -47 -2 -1 3 -27 11 -57 16 -53 18
-173 4 -195 -4 -6 -5 -11 -3 -11 14 0 131 189 133 213 1 16 4 31 7 33 13 13
47 10 61 -5 18 -20 12 -51 -10 -51 -7 0 -47 -50 -89 -111 -41 -61 -67 -105
-56 -98 107 78 168 109 216 109 13 0 27 6 32 13 4 6 8 57 8 112 1 141 7 152
113 202 93 44 174 94 282 176 l65 49 -60 -7 c-33 -4 -63 -9 -67 -12 -5 -2 -8
0 -8 4 0 5 26 14 59 21 68 14 162 59 207 99 17 16 44 48 60 73 16 25 31 47 34
50 4 3 14 16 23 30 34 50 143 153 207 195 36 24 126 72 200 108 147 71 214
123 269 211 33 53 67 144 57 153 -3 4 -6 1 -6 -5z"/>
<path d="M458 715 c-2 -2 -36 -6 -76 -9 -40 -4 -78 -9 -85 -11 -7 -2 -30 -7
-52 -10 -54 -8 -197 -44 -204 -51 -5 -6 27 -3 139 10 148 18 387 28 427 17 21
-6 19 -8 -23 -30 -34 -18 -44 -29 -42 -45 4 -27 37 -33 123 -24 38 4 84 9 102
10 51 5 26 18 -30 17 -29 -1 -72 -1 -97 0 l-45 2 39 19 c74 37 88 69 38 89
-23 10 -206 23 -214 16z"/>
</g>
</svg>
